<?xml version="1.0" encoding="utf-8"?>
<!-- Generator: Adobe Illustrator 27.0.0, SVG Export Plug-In . SVG Version: 6.00 Build 0)  -->
<svg version="1.1" xmlns="http://www.w3.org/2000/svg" xmlns:xlink="http://www.w3.org/1999/xlink" x="0px" y="0px"
	 viewBox="0 0 655 655" style="enable-background:new 0 0 655 655;" xml:space="preserve">
<style type="text/css">
	.st0{display:none;}
	.st1{display:inline;}
	.st2{opacity:0.995;fill-rule:evenodd;clip-rule:evenodd;fill:#EB2121;enable-background:new    ;}
	.st3{opacity:0.988;fill-rule:evenodd;clip-rule:evenodd;fill:#EB2121;enable-background:new    ;}
	.st4{fill:#EB2121;}
	.st5{fill:url(#SVGID_1_);}
</style>
<g id="Layer_1" class="st0">
	<g class="st1">
		<g>
			<path class="st2" d="M326.5,12.5c0.9-0.1,1.5,0.2,2,1c39.1,63.1,77.8,126.4,116,190c-28.2,46.8-56.7,93.5-85.5,140
				c-0.7,1-0.7,2,0,3c9,14.3,18,28.7,27,43c28.6-46.8,57.4-93.5,86.5-140c16.8,25.6,33.2,51.6,49,78
				c-64.4,105.2-129.1,210.2-194,315c-64.9-104.8-129.6-209.8-194-315c15.8-26.4,32.2-52.4,49-78c29,46.5,57.9,93.2,86.5,140
				c9.7-14.7,18.8-29.7,27.5-45c-28.7-47-57.4-94-86-141C249.2,139.8,287.9,76.2,326.5,12.5z"/>
		</g>
		<g>
			<path class="st3" d="M275.5,71.5l6.2-1c-12.1,19.2-24,38.5-35.7,58c-76,34.7-120.7,93.3-134,176l0,0
				c-7.8,81.6,19.4,148.8,81.5,201.5c18.3,14,38.3,25.2,60,33.5c12,18.4,23.2,37,33.5,56c-90.1-17.1-155.7-66.4-197-148
				c-29.4-65.1-33.4-131.8-12-200C112.6,153.7,178.4,95.1,275.5,71.5z"/>
		</g>
		<g>
			<path class="st3" d="M374.5,72.5c0.6-0.6,1.4-1,2.5-1c89.6,20.1,153.6,71.8,192,155c33,83.1,28,163.7-15,242
				c-42.8,69.7-104.6,112-185.5,127c-0.9-1.3-0.7-2.6,0.5-4c10.6-17.5,21.5-34.8,32.5-52c56.1-22.3,97.3-60.6,123.5-115
				c24.9-58.6,25.9-117.6,3-177c-24-55.8-63.8-95.8-119.5-120C397.4,108.9,386.1,90.6,374.5,72.5z"/>
		</g>
	</g>
</g>
<g id="Layer_2">
	<g>
		<path class="st4" d="M254.9,541.7l30.6,51.2C160.4,572.8,64.8,464.3,64.8,333.5c0-128.4,92.1-235.3,213.9-258.2L246,128.5h0.4
			c-81.6,32.3-139.3,111.9-139.3,205C107.1,429.8,168.9,511.7,254.9,541.7L254.9,541.7z M376.3,75.4l32.3,53.2h0
			c81.6,32.3,139.3,111.9,139.3,205c0,96.3-61.8,178.2-147.8,208.2h0l-32.2,51.4c125.9-19.5,222.3-128.3,222.3-259.6
			C590.2,205.1,498.1,98.2,376.3,75.4z M472.4,247.8l0.5,0.8L386,389.5l-28.1-45L444.8,203L327.5,12.5L210.2,203l86.3,141.5
			l-27.5,45l-86.9-140.9l-48.6,78.9l194,315l194-315L472.4,247.8z"/>
		<linearGradient id="SVGID_1_" gradientUnits="userSpaceOnUse" x1="10.7266" y1="650.2881" x2="647.464" y2="13.5507">
			<stop  offset="0.1014" style="stop-color:#231557"/>
			<stop  offset="0.2952" style="stop-color:#44107A"/>
			<stop  offset="0.3602" style="stop-color:#741174"/>
			<stop  offset="0.4685" style="stop-color:#BE126A"/>
			<stop  offset="0.5462" style="stop-color:#ED1363"/>
			<stop  offset="0.5849" style="stop-color:#FF1361"/>
			<stop  offset="0.6254" style="stop-color:#FF3F4F"/>
			<stop  offset="0.6915" style="stop-color:#FF8033"/>
			<stop  offset="0.7516" style="stop-color:#FFB41D"/>
			<stop  offset="0.8035" style="stop-color:#FFD90D"/>
			<stop  offset="0.8453" style="stop-color:#FFF004"/>
			<stop  offset="0.8717" style="stop-color:#FFF800"/>
		</linearGradient>
		<path class="st5" d="M254.9,541.7l30.6,51.2C160.4,572.8,64.8,464.3,64.8,333.5c0-128.4,92.1-235.3,213.9-258.2L246,128.5h0.4
			c-81.6,32.3-139.3,111.9-139.3,205C107.1,429.8,168.9,511.7,254.9,541.7L254.9,541.7z M376.3,75.4l32.3,53.2h0
			c81.6,32.3,139.3,111.9,139.3,205c0,96.3-61.8,178.2-147.8,208.2h0l-32.2,51.4c125.9-19.5,222.3-128.3,222.3-259.6
			C590.2,205.1,498.1,98.2,376.3,75.4z M472.4,247.8l0.5,0.8L386,389.5l-28.1-45L444.8,203L327.5,12.5L210.2,203l86.3,141.5
			l-27.5,45l-86.9-140.9l-48.6,78.9l194,315l194-315L472.4,247.8z"/>
	</g>
</g>
</svg>
